# xmcd
#
# Track frame offsets:
#	225
#	21920
#	43318
#	57234
#	74004
#	88756
#	108866
#	120128
#	138937
#	155922
#	176957
#	196900
#	213165
#	234361
#	246567
#	271120
#	288976
#	305036
#
# Disc length: 4346
#
# Revision: 1
# Processed by: cddbd v1.5.1PL0 Copyright (c) Steve Scherf et al.
# Submitted via: dBpowerAMP V4.0
# Normalized: r0:TDELIM( - )
#
DISCID=0e10f712
DTITLE=Various Artist - Vlentine Pure Love Songs Disc 2
DYEAR=1900
DGENRE=Blues
TTITLE0=Atlantic Starr - Always
TTITLE1=Starship - Sara
TTITLE2=Clivia N. John - Hopelessly Devoted To You
TTITLE3=Belinda Carlisle - Circle In The Sand
TTITLE4=Gloria Estefan - Cuts Both Ways
TTITLE5=Journey - Faithfully
TTITLE6=Beatles - And I Love Her
TTITLE7=Lobo - I'd Love You To Want Me
TTITLE8=Air Supply - Stars In Your Eyes
TTITLE9=Dan Bird - Boulevard
TTITLE10=Michael Jackson - I Just Cant Stop Loving You
TTITLE11=Morris Albert - Feelings
TTITLE12=Marc Almond - Sometihings Gotten Hold of my Heart
TTITLE13=Shirelles - Will You Love me Tomorrow
TTITLE14=New Kids on the Block - If you go away
TTITLE15=Whitney Houston - Saving all my love for you
TTITLE16=Billy Joel - Just the way you are
TTITLE17=Phil Collins - One more night
EXTD=by Steven\n
EXTT0=
EXTT1=
EXTT2=
EXTT3=
EXTT4=
EXTT5=
EXTT6=
EXTT7=
EXTT8=
EXTT9=
EXTT10=
EXTT11=
EXTT12=
EXTT13=
EXTT14=
EXTT15=
EXTT16=
EXTT17=
PLAYORDER=
